<svg width="120" height="120" viewBox="0 0 120 120" xmlns="http://www.w3.org/2000/svg">
  <!-- AI Robot Character -->
  
  <!-- Body -->
  <rect x="30" y="60" width="60" height="50" rx="15" fill="#E3F2FD" stroke="#2196F3" stroke-width="2"/>
  
  <!-- Head -->
  <rect x="35" y="25" width="50" height="45" rx="20" fill="#F3E5F5" stroke="#9C27B0" stroke-width="2"/>
  
  <!-- Eyes -->
  <circle cx="45" cy="40" r="4" fill="#2196F3"/>
  <circle cx="75" cy="40" r="4" fill="#2196F3"/>
  <circle cx="45" cy="40" r="2" fill="#FFFFFF"/>
  <circle cx="75" cy="40" r="2" fill="#FFFFFF"/>
  
  <!-- Mouth -->
  <path d="M 50 55 Q 60 60 70 55" stroke="#9C27B0" stroke-width="2" fill="none"/>
  
  <!-- Antenna -->
  <line x1="60" y1="25" x2="60" y2="15" stroke="#9C27B0" stroke-width="2"/>
  <circle cx="60" cy="12" r="3" fill="#FF9800"/>
  
  <!-- Arms -->
  <rect x="20" y="70" width="8" height="25" rx="4" fill="#E3F2FD" stroke="#2196F3" stroke-width="1"/>
  <rect x="92" y="70" width="8" height="25" rx="4" fill="#E3F2FD" stroke="#2196F3" stroke-width="1"/>
  
  <!-- Hands -->
  <circle cx="24" cy="98" r="4" fill="#FFE0B2" stroke="#FF9800" stroke-width="1"/>
  <circle cx="96" cy="98" r="4" fill="#FFE0B2" stroke="#FF9800" stroke-width="1"/>
  
  <!-- Chest panel -->
  <rect x="45" y="75" width="30" height="20" rx="5" fill="#FFFFFF" stroke="#2196F3" stroke-width="1"/>
  <circle cx="52" cy="82" r="2" fill="#4CAF50"/>
  <circle cx="60" cy="82" r="2" fill="#FFC107"/>
  <circle cx="68" cy="82" r="2" fill="#F44336"/>
  
  <!-- Text display -->
  <rect x="47" y="87" width="26" height="6" rx="1" fill="#000000"/>
  <rect x="48" y="88" width="3" height="4" fill="#00FF00"/>
  <rect x="52" y="88" width="3" height="4" fill="#00FF00"/>
  <rect x="56" y="88" width="3" height="4" fill="#00FF00"/>
</svg>